# xmcd CD database file
#
# Track frame offsets:
#	150
#	14648
#	29283
#	51970
#	67830
#	83695
#	104258
#	127113
#	147373
#	164418
#	178883
#	196650
#	217410
#	232553
#	247695
#
# Disc length: 3523 seconds
#
# Revision: 2
# Processed by: cddbd v1.4PL0 Copyright (c) Steve Scherf et al.
# Submitted via: CDex 1.50beta10
#
DISCID=cb0dc10f
DTITLE=Jamelao - Romantico Demais
DYEAR=1900
DGENRE=Vocal
TTITLE0=Exalta  o   Mangueira
TTITLE1=Matriz ou Filial
TTITLE2=Vingan a
TTITLE3=Exemplo
TTITLE4=Ela Disse-me Assim
TTITLE5=Quem H  de Dizer
TTITLE6=Cadeira Vazia
TTITLE7=Castigo
TTITLE8=S  Louco
TTITLE9=Serenata de Pierot
TTITLE10=Folha Morta
TTITLE11=Nem Eu
TTITLE12=ta Dor de Cotovelo
TTITLE13=Nostalgia
TTITLE14=Dez Anos
EXTD=
EXTT0=
EXTT1=
EXTT2=
EXTT3=
EXTT4=
EXTT5=
EXTT6=
EXTT7=
EXTT8=
EXTT9=
EXTT10=
EXTT11=
EXTT12=
EXTT13=
EXTT14=
PLAYORDER=
